# Blender 5.0.0
# www.blender.org
mtllib box.mtl
o Cube
v -1.115470 -0.115470 1.115470
v -1.115470 2.115470 1.115470
v -1.141421 -0.141421 -1.000000
v -1.141421 2.141421 -1.000000
v 1.115470 -0.115470 1.115470
v 1.115470 2.115470 1.115470
v 1.141421 -0.141421 -1.000000
v 1.141421 2.141421 -1.000000
v -1.000000 0.000000 1.000000
v -1.000000 2.000000 1.000000
v -1.000000 0.000000 -1.000000
v -1.000000 2.000000 -1.000000
v 1.000000 0.000000 1.000000
v 1.000000 2.000000 1.000000
v 1.000000 0.000000 -1.000000
v 1.000000 2.000000 -1.000000
vn -0.9999 -0.0000 0.0123
vn 1.0000 -0.0000 -0.0000
vn 0.9999 -0.0000 0.0123
vn -0.0000 -0.9999 0.0123
vn -0.0000 0.9999 0.0123
vn -0.0000 -0.0000 -1.0000
vn -0.0000 -0.0000 1.0000
vn -1.0000 -0.0000 -0.0000
vn -0.0000 1.0000 -0.0000
vn -0.0000 -1.0000 -0.0000
vt 0.625000 0.250000
vt 0.375000 0.250000
vt 0.375000 0.000000
vt 0.625000 0.000000
vt 0.625000 0.750000
vt 0.375000 0.500000
vt 0.625000 0.500000
vt 0.375000 0.750000
vt 0.125000 0.500000
vt 0.875000 0.750000
vt 0.875000 0.500000
vt 0.625000 1.000000
vt 0.375000 1.000000
vt 0.125000 0.750000
s 0
f 4/1/1 3/2/1 1/3/1
f 4/1/1 1/3/1 2/4/1
f 12/1/2 9/3/2 11/2/2
f 6/5/3 7/6/3 8/7/3
f 5/8/4 3/9/4 7/6/4
f 2/10/5 8/7/5 4/11/5
f 10/12/6 13/8/6 9/13/6
f 2/12/7 5/8/7 6/5/7
f 14/5/8 15/6/8 13/8/8
f 13/8/9 11/9/9 9/14/9
f 4/1/6 11/2/6 3/2/6
f 3/9/6 15/6/6 7/6/6
f 8/7/6 12/11/6 4/11/6
f 7/6/6 16/7/6 8/7/6
f 12/1/2 10/4/2 9/3/2
f 6/5/3 5/8/3 7/6/3
f 2/12/7 1/13/7 5/8/7
f 5/8/4 1/14/4 3/9/4
f 2/10/5 6/5/5 8/7/5
f 10/12/6 14/5/6 13/8/6
f 13/8/9 15/6/9 11/9/9
f 14/5/8 16/7/8 15/6/8
f 10/10/10 12/11/10 16/7/10
f 4/1/6 12/1/6 11/2/6
f 3/9/6 11/9/6 15/6/6
f 8/7/6 16/7/6 12/11/6
f 7/6/6 15/6/6 16/7/6
f 10/10/10 16/7/10 14/5/10
